<svg width="407" height="169" viewBox="0 0 407 169" fill="none" xmlns="http://www.w3.org/2000/svg">
<g clip-path="url(#clip0_73_166)">
<path d="M33.7321 49.7855C43.6623 49.7855 52.7751 54.5099 55.7694 61.1301V26.156H74.675V119.066H55.7694V110.156C52.2328 116.367 42.9824 120.826 33.7321 120.826C14.689 120.826 0 105.432 0 85.3132C0 65.1947 14.689 49.8007 33.7321 49.8007M18.9055 85.298C18.9055 95.5658 27.2011 103.801 37.5437 103.801C47.8864 103.801 56.3194 95.5658 56.3194 85.298C56.3194 75.0303 47.8864 66.6659 37.5437 66.6659C27.2011 66.6659 18.9055 75.0378 18.9055 85.298Z" fill="white"/>
<path d="M130.315 51.4084V68.8272C128 68.5617 125.686 68.4252 123.241 68.4252C113.311 68.4252 106.375 76.2588 106.375 87.3304V119.066H87.4697V51.5449H106.375V61.8126H106.513C108.69 54.7905 115.083 50.3315 123.241 50.3315C126.098 50.3315 128.68 50.7335 130.315 51.4084Z" fill="white"/>
<path d="M138.48 24.5332H157.386V43.0364H138.48V24.5332ZM157.386 119.059H138.48V51.5373H157.386V119.059Z" fill="white"/>
<path d="M164.192 51.5374H183.372L196.159 97.5906H196.427L209.214 51.5374H228.394L207.312 119.059H185.274L164.192 51.5374Z" fill="white"/>
<path d="M288.755 0.691406H356.012C384.153 0.691406 407 23.373 407 51.3098V118.081C407 146.017 384.153 168.699 356.012 168.699H288.755C260.614 168.699 237.767 146.017 237.767 118.081V51.3098C237.774 23.373 260.622 0.691406 288.755 0.691406Z" fill="#96EA28"/>
<mask id="mask0_73_166" style="mask-type:luminance" maskUnits="userSpaceOnUse" x="237" y="0" width="170" height="169">
<path d="M288.755 0.691406H356.012C384.153 0.691406 407 23.373 407 51.3098V118.081C407 146.017 384.153 168.699 356.012 168.699H288.755C260.614 168.699 237.767 146.017 237.767 118.081V51.3098C237.774 23.373 260.622 0.691406 288.755 0.691406Z" fill="white"/>
</mask>
<g mask="url(#mask0_73_166)">
<path d="M383.305 41.8156C396.909 54.6465 395.817 76.9262 380.586 93.6701C372.695 102.444 361.405 110.277 348.618 116.359C354.874 119.734 363.17 121.084 373.917 119.332C391.058 116.496 408.879 103.665 419.214 87.5959L434.316 98.4021C421.666 118.392 401.263 132.436 379.906 136.485C356.234 140.944 339.505 134.862 329.033 123.791C298.837 132.572 270.544 127.977 256.802 112.173C250.684 114.062 244.29 115.548 237.759 116.769L234.085 99.077C238.981 98.2656 243.878 97.1888 248.644 95.9678C244.703 79.8989 249.324 62.7455 257.757 52.3488C269.727 37.6297 291.084 34.2551 303.054 45.4632C313.389 55.185 312.304 74.2266 302.649 85.8442C296.393 93.4047 286.6 100.025 274.631 105.424C284.286 111.771 301.702 112.31 319.248 108.124C311.495 87.4594 316.666 60.9938 333.257 45.5997C347.946 31.419 370.938 29.9326 383.313 41.8232M287.54 76.2513C293.254 69.3657 294.208 62.2071 290.397 58.5595C285.905 54.51 277.472 56.2618 272.309 62.609C266.19 69.9041 264.143 80.8392 265.778 90.432C275.295 86.5115 282.919 81.7871 287.54 76.2513ZM365.759 83.0004C375.147 72.7327 376.644 61.1227 370.113 55.0485C364.674 49.9146 353.385 51.1355 344.677 60.1823C334.884 70.1771 331.072 88.5438 336.648 102.315C347.801 97.7196 357.868 91.5089 365.759 83.0004Z" fill="#1D1D1B"/>
</g>
</g>
<defs>
<clipPath id="clip0_73_166">
<rect width="407" height="168" fill="white" transform="translate(0 0.691406)"/>
</clipPath>
</defs>
</svg>
