<svg width="157" height="66" viewBox="0 0 157 66" fill="none" xmlns="http://www.w3.org/2000/svg">
<g clip-path="url(#clip0_73_79)">
<path d="M13.0121 19.2603C16.8427 19.2603 20.358 21.0882 21.513 23.6496V10.1179H28.8058V46.0654H21.513V42.6179C20.1488 45.0209 16.5804 46.7461 13.0121 46.7461C5.66629 46.7461 0 40.79 0 33.0061C0 25.2222 5.66629 19.2662 13.0121 19.2662M7.2928 33.0002C7.2928 36.9729 10.4928 40.1592 14.4825 40.1592C18.4722 40.1592 21.7252 36.9729 21.7252 33.0002C21.7252 29.0276 18.4722 25.7914 14.4825 25.7914C10.4928 25.7914 7.2928 29.0305 7.2928 33.0002Z" fill="#1D1D1B"/>
<path d="M50.2686 19.8883V26.6277C49.3758 26.525 48.483 26.4722 47.5401 26.4722C43.7095 26.4722 41.034 29.503 41.034 33.7867V46.0655H33.7412V19.9411H41.034V23.9138H41.087C41.9268 21.1969 44.3931 19.4717 47.5401 19.4717C48.6421 19.4717 49.638 19.6272 50.2686 19.8883Z" fill="#1D1D1B"/>
<path d="M53.4185 9.49023H60.7113V16.6492H53.4185V9.49023ZM60.7113 46.0626H53.4185V19.9382H60.7113V46.0626Z" fill="#1D1D1B"/>
<path d="M63.3369 19.9382H70.7358L75.6684 37.7565H75.7715L80.7041 19.9382H88.103L79.9704 46.0626H71.4695L63.3369 19.9382Z" fill="#1D1D1B"/>
<path d="M111.387 0.265625H137.331C148.187 0.265625 157 9.04124 157 19.8501V45.6841C157 56.4929 148.187 65.2686 137.331 65.2686H111.387C100.532 65.2686 91.7183 56.4929 91.7183 45.6841V19.8501C91.7212 9.04124 100.534 0.265625 111.387 0.265625Z" fill="#96EA28"/>
<mask id="mask0_73_79" style="mask-type:luminance" maskUnits="userSpaceOnUse" x="91" y="0" width="66" height="66">
<path d="M111.387 0.265625H137.331C148.187 0.265625 157 9.04124 157 19.8501V45.6841C157 56.4929 148.187 65.2686 137.331 65.2686H111.387C100.532 65.2686 91.7183 56.4929 91.7183 45.6841V19.8501C91.7212 9.04124 100.534 0.265625 111.387 0.265625Z" fill="white"/>
</mask>
<g mask="url(#mask0_73_79)">
<path d="M147.859 16.1768C153.107 21.1411 152.686 29.7612 146.81 36.2395C143.767 39.6342 139.412 42.665 134.479 45.0181C136.892 46.3237 140.092 46.846 144.238 46.1682C150.85 45.0709 157.725 40.1065 161.711 33.8894L167.537 38.0703C162.657 45.8044 154.787 51.2382 146.548 52.8049C137.417 54.5301 130.964 52.1771 126.924 47.8934C115.276 51.291 104.362 49.513 99.061 43.3985C96.7008 44.1291 94.2345 44.7041 91.7152 45.1765L90.2979 38.3315C92.1866 38.0175 94.0754 37.6009 95.914 37.1285C94.3936 30.9114 96.1763 24.2746 99.4293 20.2521C104.047 14.5572 112.285 13.2516 116.903 17.588C120.889 21.3494 120.471 28.7167 116.746 33.2116C114.333 36.1368 110.556 38.6982 105.938 40.7872C109.663 43.243 116.381 43.4513 123.149 41.8317C120.159 33.8366 122.153 23.5969 128.553 17.6408C134.22 12.1543 143.089 11.5792 147.862 16.1797M110.918 29.5001C113.122 26.836 113.49 24.0663 112.02 22.6551C110.287 21.0883 107.034 21.7661 105.043 24.2218C102.682 27.0443 101.893 31.2752 102.523 34.9867C106.195 33.4698 109.135 31.6419 110.918 29.5001ZM141.091 32.1114C144.712 28.1387 145.29 23.6468 142.771 21.2966C140.673 19.3103 136.318 19.7827 132.959 23.2829C129.181 27.15 127.711 34.2561 129.862 39.5843C134.164 37.8063 138.047 35.4033 141.091 32.1114Z" fill="#1D1D1B"/>
</g>
</g>
<defs>
<clipPath id="clip0_73_79">
<rect width="157" height="65" fill="white" transform="translate(0 0.265625)"/>
</clipPath>
</defs>
</svg>
